<svg width="938" height="445" viewBox="0 0 938 445" fill="none" xmlns="http://www.w3.org/2000/svg">
<path d="M541.24 191.865C546.076 193.87 548.752 196.295 554.098 196.295C560.558 196.295 556.34 192.428 553.544 189.529C550.959 186.849 548.44 186.469 544.869 185.47C541.41 184.501 537.991 183.228 534.473 182.456C528.055 181.047 521.671 180.407 515.495 177.997C513.028 177.034 508.391 175.263 507.467 172.493" stroke="#141414" stroke-width="3" stroke-linecap="round"/>
<path d="M563.385 163.081C565.262 163.081 566.438 163.082 563.94 162.65C561.817 162.281 559.736 161.714 557.603 161.419C553.646 160.874 549.816 160.034 545.975 158.959C540.743 157.495 536.783 155.305 532.935 151.455" stroke="#141414" stroke-width="3" stroke-linecap="round"/>
<path d="M589.76 394.323C587.03 394.323 583.681 394.262 581.29 395.783C578.534 397.536 575.497 399.712 573.761 402.563C571.349 406.526 568.563 412.612 570.647 417.373C572.703 422.074 575.737 426.322 579.959 429.361C585.548 433.383 592.731 434.405 599.235 436.369C604.168 437.858 609.795 437.158 612.896 432.865C614.29 430.935 614.949 428.482 615.313 426.15C615.786 423.128 615.202 418.76 613.708 416.092C612.995 414.821 612.201 413.61 611.355 412.427C610.31 410.965 608.77 409.944 607.801 408.404C606.001 405.535 603.584 403.514 601.473 400.924C599.644 398.68 598.365 397.494 595.535 396.659C593.77 396.138 592.453 394.323 590.635 394.323" stroke="#141414" stroke-width="3" stroke-linecap="round"/>
<path d="M525.736 392.264C525.99 384.552 530.031 379.217 536.639 375.913" stroke="#141414" stroke-width="3" stroke-linecap="round"/>
<path d="M515.254 372.142C520.139 365.594 525.527 362.023 533.519 360.589C538.544 359.688 544.105 358.307 549.222 358.307" stroke="#141414" stroke-width="3" stroke-linecap="round"/>
<path d="M813.02 296.891C810.629 296.891 808.235 296.925 805.844 296.891C804.09 296.868 803.216 295.988 801.734 295.27C799.872 294.369 797.882 293.477 796.249 292.191C794.366 290.711 792.896 288.669 791.355 286.859C789.335 284.489 788.678 282.66 787.727 279.768C787.121 277.93 786.971 275.797 785.554 274.38" stroke="#141414" stroke-width="3" stroke-linecap="round"/>
<path d="M889.721 301.839C887.346 301.839 884.96 302.139 882.6 302.086C881.199 302.055 879.851 301.501 878.532 301.097C872.636 299.29 869.494 294.15 865.706 289.731C864.244 288.027 862.514 286.514 861.65 284.384C860.906 282.551 860.645 280.65 860.509 278.696C860.322 275.973 860.028 273.13 860.028 270.421" stroke="#141414" stroke-width="3" stroke-linecap="round"/>
<path d="M933.072 295.538C930.243 301.938 921.721 304.521 915.271 304.521C905.767 304.521 902.157 295.813 898.134 288.866C895.02 283.49 894.654 276.587 893.55 270.515C892.822 266.519 892.436 262.481 891.146 258.613" stroke="#141414" stroke-width="3" stroke-linecap="round"/>
<path d="M751.339 222.46C753.021 221.209 755.269 219.931 755.174 217.56C755.138 216.643 754.071 215.286 755.558 214.79" stroke="#141414" stroke-width="3" stroke-linecap="round"/>
<path d="M736.764 207.887C736.689 211.731 734.65 218.24 738.681 220.542" stroke="#141414" stroke-width="3" stroke-linecap="round"/>
<path d="M775.118 211.725C775.437 210.873 775.572 207.855 776.27 207.507" stroke="#141414" stroke-width="3" stroke-linecap="round"/>
<path d="M759.39 194.084C759.164 195.561 757.93 202.826 759.774 203.288" stroke="#141414" stroke-width="3" stroke-linecap="round"/>
<path d="M889 305.515C899.988 305.515 906.497 318.805 918.313 318.805C923.195 318.805 932.741 320.099 934.215 313.466C934.924 310.283 935.797 297.337 933.267 295.312C927.086 290.37 926.073 282.911 918.906 278.226C911.294 273.249 906.181 265.694 898.017 261.613C888.677 256.945 881.87 249.626 871.908 245.715C860.709 241.315 852.994 232.423 842.475 227.442C819.512 216.567 794.798 209.643 773.165 195.879C756.784 185.456 733.755 185.096 715.13 181.048C672.203 171.718 628.002 168.173 587.073 152.333C542.751 135.18 497.53 122.4 451.539 109.973C439.743 106.786 428.601 99.5236 417.239 96.6836C408.948 94.6113 397.573 90.1977 390.655 84.8182C377.845 74.8579 364.922 62.5111 347.93 62.5111C316.463 62.5111 285.219 68.9185 253.34 68.9185C236.209 68.9185 216.406 66.7297 199.459 64.1722C183.348 61.7408 166.117 61.7118 150.325 57.7648C121.331 50.518 89.0535 40.7995 61.7887 28.3384C37.4074 17.1952 5.95994 3.15865 -20.5762 2.70898M889 305.515C870.32 328.859 831.784 288.056 812.569 282.972M889 305.515C894.596 298.521 880.584 286.638 873.333 282.496C867.883 279.382 864.679 276.606 861.227 272.293C858.04 268.308 853.23 262.46 847.817 261.257C837.958 259.067 823.194 248.789 816.841 240.85C809.5 231.674 792.556 225.43 781.593 220.558C759.047 210.541 735.61 197.065 710.028 197.065C697.797 197.065 632.308 203.981 626.713 192.793M-14.329 227.643C11.9168 227.643 24.3173 225.776 49.9208 221.035C65.7372 218.107 82.5499 215.258 98.5802 214.153C120.127 212.667 141.525 209.881 163.261 209.881C183.986 209.881 209.098 210.999 228.892 205.135C237.931 202.457 247.699 203.475 257.139 203.475C266.732 203.475 271.451 208.577 279.57 213.086C287.556 217.522 294.211 219.784 298.795 228.036C304.869 238.964 307.791 251.471 316.954 261.141C323.358 267.898 327.813 276.19 336.18 280.837C344.632 285.532 355.244 292.694 362.883 298.636C368.938 303.344 372.804 310.333 377.956 315.484C385.484 323.009 394.994 324.977 404.541 329.485C415.734 334.77 425.877 342.286 436.585 348.233C445.465 353.165 457.519 356.221 465.306 362.591C472.226 368.251 482.761 369.244 488.923 375.405C498.663 385.142 513.11 389.206 523.104 399.967C537.296 415.248 555.208 424.618 573.306 433.664C583.563 438.792 610.168 447.682 617.099 435.207C624.934 421.106 615.003 401.075 605.35 391.423C592.163 378.24 583.706 365.194 565.829 357.251C552.393 351.281 538.937 341.702 526.782 333.757C510.265 322.959 504.567 311.151 493.077 296.381M493.077 296.381C483.534 284.114 474.196 266.059 460.083 259.005M493.077 296.381C516.861 300.943 537.613 291.13 557.285 283.565C571.535 278.085 589.182 280.362 604.282 280.362C623.714 280.362 639.971 269.228 657.69 265.292C675.742 261.281 695.242 259.14 714.3 261.257M812.569 282.972C797.983 279.112 785.437 271.323 769.843 269.682M812.569 282.972C807.332 281.586 802.359 279.694 797.414 277.763M714.3 261.257C732.961 263.331 751.356 267.737 769.843 269.682M714.3 261.257C723.008 262.736 734.316 268.327 741.83 273.109C745.19 275.246 748.33 277.805 751.487 280.259C754.375 282.506 757.68 284.276 760.179 287.024C765.161 292.504 771.517 296.523 777.949 300.061C785.067 303.974 794.19 307.464 802.488 306.744C808.875 306.188 817.451 301.371 813.518 293.9C811.827 290.689 808.539 287.271 805.595 285.484C803.275 284.076 798.323 280.49 797.414 277.763M769.843 269.682C779.839 270.734 788.582 274.313 797.414 277.763M742.2 275.159C741.942 288.028 723.4 286.198 715.057 286.198C710.536 286.198 706.717 285.927 702.84 283.413C697.751 280.114 693.105 276.477 688.118 273.064C682.821 269.437 677.915 263.835 671.352 262.74" stroke="black" stroke-width="3" stroke-linecap="round"/>
</svg>
